<svg width="38" height="40" viewBox="0 0 38 40" fill="none" xmlns="http://www.w3.org/2000/svg">
<path d="M23.7111 20.4109L29.0641 17.5514L37.1289 20.9476L36.2326 19.5708L28.9694 16.161L23.656 18.9817C23.8937 18.2984 23.9227 18.3198 22.882 17.6961L28.0012 13.4991L34.5755 10.2185L33.0878 10.1528L27.5505 12.9155L22.0165 17.1731C21.3705 16.8133 20.5539 16.7348 19.7248 16.9019L18.0464 8.65391L14.954 1.20406L13.4325 0L17.104 8.84314L18.5522 17.2824L14.154 11.5644L6.28593 11.6602L4.92634 12.5268L13.5051 12.7682L17.4971 17.9871C17.2083 18.2287 16.9471 18.5014 16.718 18.8001L12.1225 15.8928L0.871063 21.3484L1.05023 22.1536L11.8552 17.2351L16.0903 19.8943C16.0306 20.0415 15.9774 20.1914 15.9309 20.3434L10.7836 20.8119L1.67443 30.2894L1.85401 31.7202V31.7201L11.4089 21.7055H15.6285C14.9029 24.2267 12.8945 23.4548 11.8552 25.3719C10.7285 27.4508 11.5039 31.7127 14.0884 32.5255C16.6717 33.3384 20.3594 31.018 20.9643 28.5903C21.4597 26.5933 20.8077 25.1132 20.8834 23.7435L24.4877 26.3033L26.4771 40L27.4517 38.9396L25.5147 25.936L21.2979 22.322C21.5346 21.8838 21.8383 21.514 22.1448 21.1713L22.1711 21.5813L27.5403 21.9197L33.439 32.2232L34.0527 31.6738L28.1057 20.6734L23.7111 20.4109Z" fill="white"/>
</svg>
